<?xml version="1.0" encoding="utf-8"?>
<!-- Generator: Adobe Illustrator 16.0.0, SVG Export Plug-In . SVG Version: 6.00 Build 0)  -->
<!DOCTYPE svg PUBLIC "-//W3C//DTD SVG 1.1//EN" "http://www.w3.org/Graphics/SVG/1.1/DTD/svg11.dtd">
<svg version="1.1" id="Шар_1" xmlns="http://www.w3.org/2000/svg" xmlns:xlink="http://www.w3.org/1999/xlink" x="0px" y="0px"
	 width="43px" height="43px" viewBox="0 0 43 43" enable-background="new 0 0 43 43" xml:space="preserve">
<circle fill="#EAEAEA" cx="21.5" cy="21.138" r="21.138"/>
<radialGradient id="SVGID_1_" cx="33.1143" cy="8.1299" r="30.2796" gradientUnits="userSpaceOnUse">
	<stop  offset="0" style="stop-color:#4845A2"/>
	<stop  offset="0.0973" style="stop-color:#4D45A2"/>
	<stop  offset="0.2076" style="stop-color:#5A45A2"/>
	<stop  offset="0.3239" style="stop-color:#7144A1"/>
	<stop  offset="0.3618" style="stop-color:#7A44A1"/>
	<stop  offset="0.4217" style="stop-color:#8143A1"/>
	<stop  offset="0.5068" style="stop-color:#9342A0"/>
	<stop  offset="0.6065" style="stop-color:#B23F9E"/>
	<stop  offset="0.6599" style="stop-color:#C53D9D"/>
	<stop  offset="0.9786" style="stop-color:#F9A326"/>
</radialGradient>
<path fill="url(#SVGID_1_)" d="M41.012,21.138c0,10.774-8.735,19.512-19.512,19.512c-10.775,0-19.512-8.737-19.512-19.512
	c0-2.857,0.614-5.571,1.717-8.015C6.763,6.345,13.582,1.626,21.5,1.626s14.739,4.719,17.795,11.497
	C40.397,15.567,41.012,18.281,41.012,21.138z"/>
<path opacity="0.1" fill="#FFFFFF" d="M39.295,13.123c-3.056,6.779-9.877,11.499-17.795,11.499S6.763,19.902,3.705,13.123
	C6.763,6.345,13.582,1.626,21.5,1.626S36.239,6.345,39.295,13.123z"/>
<g>
	<g>
		<path fill="#FFFFFF" d="M26.909,31.624H16.091c-2.24,0-4.063-1.78-4.063-3.97V16.514c0-2.189,1.822-3.97,4.063-3.97h10.818
			c2.239,0,4.063,1.781,4.063,3.97v11.141C30.973,29.844,29.148,31.624,26.909,31.624z M16.091,14.179
			c-1.338,0-2.427,1.048-2.427,2.335v11.141c0,1.287,1.089,2.333,2.427,2.333h10.818c1.339,0,2.427-1.046,2.427-2.333V16.514
			c0-1.287-1.088-2.335-2.427-2.335H16.091z"/>
	</g>
	<g>
		<path fill="#FFFFFF" d="M21.5,27.035c-2.73,0-4.951-2.22-4.951-4.952c0-2.73,2.221-4.951,4.951-4.951s4.952,2.221,4.952,4.951
			C26.452,24.815,24.23,27.035,21.5,27.035z M21.5,18.767c-1.828,0-3.316,1.488-3.316,3.316c0,1.83,1.488,3.317,3.316,3.317
			c1.83,0,3.317-1.487,3.317-3.317C24.817,20.255,23.33,18.767,21.5,18.767z"/>
	</g>
	<circle fill="#FFFFFF" cx="26.815" cy="16.882" r="1.158"/>
</g>
</svg>
