<?xml version="1.0" encoding="utf-8"?>
<!-- Generator: Adobe Illustrator 16.0.0, SVG Export Plug-In . SVG Version: 6.00 Build 0)  -->
<!DOCTYPE svg PUBLIC "-//W3C//DTD SVG 1.1//EN" "http://www.w3.org/Graphics/SVG/1.1/DTD/svg11.dtd">
<svg version="1.1" id="Шар_1" xmlns="http://www.w3.org/2000/svg" xmlns:xlink="http://www.w3.org/1999/xlink" x="0px" y="0px"
	 width="43px" height="43px" viewBox="0 0 43 43" enable-background="new 0 0 43 43" xml:space="preserve">
<g>
	<circle fill="#EAEAEA" cx="21.75" cy="21.75" r="20.985"/>
	<radialGradient id="SVGID_1_" cx="33.2793" cy="8.8359" r="30.0604" gradientUnits="userSpaceOnUse">
		<stop  offset="0.073" style="stop-color:#59C9C4"/>
		<stop  offset="0.2265" style="stop-color:#52C5C4"/>
		<stop  offset="0.4445" style="stop-color:#40BBC3"/>
		<stop  offset="0.6997" style="stop-color:#21AAC1"/>
		<stop  offset="0.9282" style="stop-color:#0098BF"/>
	</radialGradient>
	<path fill="url(#SVGID_1_)" d="M41.119,21.75c0,10.698-8.672,19.371-19.37,19.371c-10.697,0-19.37-8.673-19.37-19.371
		c0-2.836,0.608-5.53,1.704-7.956C7.118,7.065,13.888,2.379,21.749,2.379c7.861,0,14.632,4.686,17.667,11.415
		C40.511,16.22,41.119,18.913,41.119,21.75z"/>
	<path opacity="0.1" fill="#FFFFFF" d="M39.416,13.794c-3.035,6.729-9.806,11.415-17.667,11.415
		c-7.861,0-14.631-4.686-17.666-11.415C7.118,7.065,13.888,2.379,21.749,2.379C29.61,2.379,36.381,7.065,39.416,13.794z"/>
	<path fill="#FFFFFF" d="M29.741,16.945c0,0,1.575-1.275,1.7-2.326c0,0-1.075,0.775-2.677,1.025c0,0-1.476-1.826-4.227-1.176
		c-2.751,0.65-3.327,3.727-3.001,4.953c0,0-4.777,0.075-8.679-4.352c0,0-1.901,3.176,1.375,5.627c0,0-1.572-0.1-1.924-0.5
		c0,0-0.152,3.327,3.425,4.153c0,0-0.851,0.3-1.951,0.175c0,0,0.925,2.751,3.952,2.826c0,0-2.751,2.275-6.303,1.775
		c0,0,3.742,2.758,8.853,1.667c0.244-0.052,0.49-0.112,0.74-0.182c3.238-0.985,6.04-3.086,7.591-6.131
		c0.104-0.197,0.203-0.402,0.3-0.614c0.672-1.484,1.156-3.317,1.051-5.445c0,0,1.601-1.125,2.101-2.125
		C32.066,16.295,31.041,16.771,29.741,16.945z"/>
</g>
</svg>
